<?xml version="1.0" standalone="no"?>
<!DOCTYPE svg PUBLIC "-//W3C//DTD SVG 20010904//EN"
 "http://www.w3.org/TR/2001/REC-SVG-20010904/DTD/svg10.dtd">
<svg version="1.0" xmlns="http://www.w3.org/2000/svg"
 width="300.000000pt" height="300.000000pt" viewBox="0 0 300.000000 300.000000"
 preserveAspectRatio="xMidYMid meet">
<metadata>
Created by potrace 1.11, written by Peter Selinger 2001-2013
</metadata>
<g transform="translate(0.000000,300.000000) scale(0.100000,-0.100000)"
fill="#000000" stroke="none">
<path d="M420 2985 c0 -8 -19 -20 -50 -29 -71 -21 -133 -60 -199 -127 -67 -66
-106 -128 -127 -199 -9 -31 -21 -50 -29 -50 -13 0 -15 -139 -15 -1080 0 -941
2 -1080 15 -1080 8 0 20 -19 29 -50 21 -71 60 -133 127 -199 66 -67 128 -106
199 -127 31 -9 50 -21 50 -29 0 -13 139 -15 1080 -15 941 0 1080 2 1080 15 0
8 19 20 50 29 71 21 133 60 199 127 67 66 106 128 127 199 9 31 21 50 29 50
13 0 15 139 15 1080 0 941 -2 1080 -15 1080 -8 0 -20 19 -29 50 -21 71 -60
133 -127 199 -66 67 -128 106 -199 127 -31 9 -50 21 -50 29 0 13 -139 15
-1080 15 -941 0 -1080 -2 -1080 -15z m2031 -729 c23 -50 -48 -149 -142 -196
-31 -16 -71 -23 -168 -30 -152 -10 -223 -37 -311 -117 -112 -103 -140 -191
-140 -444 0 -265 -26 -370 -126 -509 -47 -66 -166 -155 -256 -192 -94 -38
-224 -51 -455 -45 -179 4 -203 10 -203 49 0 60 98 160 183 188 21 6 89 15 151
20 96 6 125 12 178 37 107 50 188 135 229 240 20 52 23 82 29 308 6 234 8 255
32 323 52 145 147 251 291 322 131 65 151 68 440 69 l257 1 11 -24z"/>
</g>
</svg>
